Coordinates
version=1
nRows=21
nColumns=28
inDegrees=yes

Units are S.I. units (second, meters, Newtons, ...)
If the header above contains a line with 'inDegrees', this indicates whether rotational values are in degrees (yes) or radians (no).

endheader
time	pelvis_tilt	pelvis_list	pelvis_rotation	pelvis_tx	pelvis_ty	pelvis_tz	hip_flexion_r	hip_adduction_r	hip_rotation_r	knee_angle_r	knee_angle_r_ie	knee_angle_r_vv	ankle_angle_r	subtalar_angle_r	mtp_angle_r	hip_flexion_l	hip_adduction_l	hip_rotation_l	knee_angle_l	knee_angle_l_ie	knee_angle_l_vv	ankle_angle_l	subtalar_angle_l	mtp_angle_l	lumbar_extension	lumbar_bending	lumbar_rotation
      2.95000000	      1.50269815	      6.98255297	      6.00124347	     -0.30750820	      1.62225626	      0.48213475	     -0.12357074	     -1.31006372	    -12.51894196	     -5.60720887	      3.65302077	     -6.03407559	     12.85223038	      7.86128671	      0.00000000	      8.67291566	      7.44192299	      2.31489191	    -22.17068437	     14.49844706	      1.08687084	     13.20335332	     13.67221071	      0.00000000	    -21.13598458	     -4.21157343	     -7.93575011
      2.95500000	      1.53281152	      6.91557062	      5.88486762	     -0.30684666	      1.62225434	      0.48216224	     -0.26972849	     -1.26440017	    -12.44278937	     -5.43862676	      3.63811192	     -5.95085551	     12.80441967	      7.90384919	      0.00000000	      8.72401556	      7.33570982	      2.25875444	    -22.15103702	     14.41127853	      1.12863835	     13.35251083	     13.54869453	      0.00000000	    -21.08719673	     -4.22857633	     -7.83446524
      2.96000000	      1.55841836	      6.84408947	      5.76890337	     -0.30618559	      1.62224884	      0.48214061	     -0.42147443	     -1.22331855	    -12.30681804	     -5.25640944	      3.56872724	     -5.85388753	     12.75942651	      7.96804847	      0.00000000	      8.74694063	      7.23413627	      2.20923717	    -22.05282300	     14.27586895	      1.18941251	     13.47439856	     13.34435191	      0.00000000	    -21.02212496	     -4.23398705	     -7.74273756
      2.96500000	      1.58848123	      6.78007959	      5.63778484	     -0.30550102	      1.62226101	      0.48213891	     -0.57813352	     -1.18880521	    -12.14660097	     -5.07720935	      3.47327723	     -5.75697233	     12.71407082	      8.05062022	      0.00000000	      8.71986358	      7.13315999	      2.18713759	    -21.86166231	     14.12886783	      1.23184232	     13.55334918	     13.04111537	      0.00000000	    -20.95029006	     -4.25282467	     -7.64285543
      2.97000000	      1.60288980	      6.73019413	      5.51426177	     -0.30484263	      1.62227905	      0.48210470	     -0.72311730	     -1.17699062	    -11.96845116	     -4.89430447	      3.37170194	     -5.65035878	     12.69377222	      8.10582342	      0.00000000	      8.64991226	      7.04819476	      2.27068923	    -21.53711285	     13.96260531	      1.23457020	     13.46297377	     12.42899200	      0.00000000	    -20.88354235	     -4.27915649	     -7.59613783
      2.97500000	      1.59513887	      6.63280731	      5.43042520	     -0.30417430	      1.62223281	      0.48203029	     -0.82188558	     -1.10542400	    -11.95355183	     -4.75892696	      3.37779244	     -5.58622933	     12.66955643	      8.18772350	      0.00000000	      8.64322517	      6.93110266	      2.32563297	    -21.27452450	     13.92151585	      1.29912451	     13.58016297	     12.33755030	      0.00000000	    -20.77758969	     -4.25106138	     -7.55542273
      2.98000000	      1.66943017	      6.60199193	      5.28297058	     -0.30346319	      1.62234202	      0.48202947	     -1.03296247	     -1.10400751	    -11.77466624	     -4.55546592	      3.20001976	     -5.48530359	     12.65163777	      8.40876889	      0.00000000	      8.42498864	      6.83046344	      2.44278899	    -20.79698070	     13.69409159	      1.23379025	     13.47389440	     11.55674970	      0.00000000	    -20.77936785	     -4.30180452	     -7.48306571
      2.98500000	      1.67492548	      6.53131865	      5.19081511	     -0.30274523	      1.62233527	      0.48196355	     -1.14661530	     -1.05423201	    -11.77379674	     -4.40792804	      3.17300691	     -5.42873536	     12.57674769	      8.51934825	      0.00000000	      8.31611565	      6.71410704	      2.58785736	    -20.37444584	     13.65564499	      1.21449926	     13.56004241	     11.31733490	      0.00000000	    -20.67754617	     -4.32431149	     -7.40616398
      2.99000000	      1.70710529	      6.48196926	      5.08229549	     -0.30206341	      1.62238898	      0.48189040	     -1.29156105	     -1.02967303	    -11.69465331	     -4.25836069	      3.11284051	     -5.36669303	     12.59857089	      8.66045985	      0.00000000	      8.09516937	      6.60838059	      2.82687396	    -19.77003657	     13.52287238	      1.14197298	     13.33776590	     10.45382625	      0.00000000	    -20.63704475	     -4.33775045	     -7.42404937
      2.99500000	      1.69925455	      6.38872127	      4.99336088	     -0.30137786	      1.62235536	      0.48181092	     -1.37175109	     -0.95355544	    -11.69565646	     -4.13751404	      3.09962338	     -5.31825388	     12.52607989	      8.75114830	      0.00000000	      7.96777868	      6.46179940	      3.00945838	    -19.25817602	     13.57794246	      1.10332483	     13.37083711	     10.30545023	      0.00000000	    -20.52838813	     -4.33404722	     -7.34553000
      3.00000000	      1.73090384	      6.33356224	      4.89315435	     -0.30068592	      1.62240861	      0.48171285	     -1.50619907	     -0.91891790	    -11.64752436	     -4.00731020	      3.08195942	     -5.26685116	     12.52774109	      8.84262157	      0.00000000	      7.68840699	      6.33776721	      3.32521530	    -18.53031216	     13.52094571	      0.99065238	     13.11382469	      9.44098731	      0.00000000	    -20.48643593	     -4.34035808	     -7.38466069
      3.00500000	      1.73776939	      6.25238418	      4.78550984	     -0.29998603	      1.62241556	      0.48161568	     -1.59613368	     -0.85944100	    -11.61969766	     -3.90667910	      3.09783192	     -5.21434093	     12.49250791	      8.89608776	      0.00000000	      7.44702634	      6.18630177	      3.59923773	    -17.81479853	     13.58770985	      0.89152946	     12.95551238	      8.96321606	      0.00000000	    -20.40695194	     -4.33209428	     -7.35232233
      3.01000000	      1.80166314	      6.20852828	      4.63901191	     -0.29914440	      1.62252184	      0.48147137	     -1.76634884	     -0.84299322	    -11.58715056	     -3.78521401	      3.13903188	     -5.16277405	     12.45341876	      8.92835446	      0.00000000	      7.05458363	      6.07260797	      3.85822613	    -16.93900509	     13.58908867	      0.80383829	     12.70372159	      8.32526745	      0.00000000	    -20.37095932	     -4.37348518	     -7.30407178
      3.01500000	      1.78381830	      6.12249916	      4.53076481	     -0.29843900	      1.62249463	      0.48132745	     -1.81723686	     -0.77959970	    -11.55335111	     -3.70445125	      3.15419643	     -5.12300212	     12.41388212	      8.95785826	      0.00000000	      6.77272817	      5.90713734	      4.20550333	    -16.08445831	     13.71434182	      0.66647206	     12.45614890	      7.75845391	      0.00000000	    -20.25842601	     -4.36447551	     -7.29161285
      3.02000000	      1.78701833	      6.03083859	      4.42133667	     -0.29771601	      1.62247275	      0.48117459	     -1.88993279	     -0.70044763	    -11.52884853	     -3.62069918	      3.16201703	     -5.10341448	     12.38077791	      9.00404361	      0.00000000	      6.43893836	      5.73068472	      4.54571543	    -15.16534158	     13.84407498	      0.53299893	     12.16829376	      7.18408251	      0.00000000	    -20.16560649	     -4.35332742	     -7.25822104
      3.02500000	      1.78429771	      5.91056605	      4.29524881	     -0.29698667	      1.62241731	      0.48096964	     -1.94322495	     -0.60226983	    -11.50272268	     -3.55341151	      3.17557614	     -5.07454920	     12.33683790	      9.07135459	      0.00000000	      6.13567722	      5.54999271	      4.77977397	    -14.27280840	     14.11487518	      0.47054341	     11.93063889	      6.99725841	      0.00000000	    -20.06519553	     -4.31112211	     -7.12931136
      3.03000000	      1.82856731	      5.83128058	      4.15431345	     -0.29619207	      1.62244821	      0.48077907	     -2.06404106	     -0.55238593	    -11.45072241	     -3.47824616	      3.19672028	     -5.02886668	     12.33695806	      9.16308113	      0.00000000	      5.62480373	      5.34038815	      5.22245372	    -13.12013903	     14.15955784	      0.21734755	     11.42586222	      5.91443176	      0.00000000	    -20.00405800	     -4.30289643	     -7.18400138
      3.03500000	      1.83361678	      5.71375528	      3.98551660	     -0.29535720	      1.62238234	      0.48059220	     -2.12558836	     -0.45315827	    -11.37996066	     -3.41829075	      3.20103494	     -5.02257245	     12.34460079	      9.25508536	      0.00000000	      5.18201732	      5.11766397	      5.50655189	    -11.99904961	     14.31751254	      0.05518321	     10.95432994	      5.24827766	      0.00000000	    -19.89439376	     -4.27109921	     -7.07637680
      3.04000000	      1.85403851	      5.57511573	      3.80694299	     -0.29449805	      1.62230956	      0.48035051	     -2.19814434	     -0.34949548	    -11.32544684	     -3.37788937	      3.23936796	     -4.98763365	     12.35384785	      9.36346424	      0.00000000	      4.70043538	      4.86842313	      5.76572406	    -10.84331423	     14.48684681	     -0.12127696	     10.42302400	      4.53379508	      0.00000000	    -19.79111441	     -4.20500568	     -6.98281359
      3.04500000	      1.88599301	      5.44345219	      3.60895771	     -0.29361130	      1.62221237	      0.48008952	     -2.28377802	     -0.25322678	    -11.24206832	     -3.33729581	      3.28154238	     -4.97121372	     12.38451004	      9.49119935	      0.00000000	      4.18087210	      4.62620827	      5.99434318	     -9.65319629	     14.71113533	     -0.30229851	      9.89394795	      3.87056915	      0.00000000	    -19.69589751	     -4.15747481	     -6.89272460
      3.05000000	      1.92695277	      5.29265037	      3.38646237	     -0.29265828	      1.62209958	      0.47984894	     -2.37153522	     -0.13549238	    -11.16587676	     -3.31477032	      3.34168108	     -4.95865149	     12.42841932	      9.61206928	      0.00000000	      3.62866409	      4.35849302	      6.13108617	     -8.43944545	     14.91528957	     -0.48300639	      9.28874479	      3.17884256	      0.00000000	    -19.59844746	     -4.09012022	     -6.74993552
